<svg xmlns="http://www.w3.org/2000/svg" width="64" height="64" enable-background="new"><title>Yaru Icon Theme Template</title><defs><linearGradient id="e" x1="152" x2="137.5" y1="156" y2="156" gradientTransform="matrix(.21122 0 0 .26101 2.955 226.98)" gradientUnits="userSpaceOnUse"><stop offset="0" stop-opacity="0"/><stop offset="1" stop-opacity=".156"/></linearGradient><linearGradient id="d" x1="216" x2="216" y1="28" y2="284" gradientTransform="matrix(.3041 0 0 .33558 -14.225 215.35)" gradientUnits="userSpaceOnUse"><stop offset="0" stop-color="#d4279f"/><stop offset="1" stop-color="#fa3da3"/></linearGradient><linearGradient id="c" x1="38.31" x2="264" y1="270.69" y2="268" gradientTransform="matrix(0 .26101 -.26066 0 72.659 228.03)" gradientUnits="userSpaceOnUse"><stop offset="0" stop-color="#4d4d4d"/><stop offset="1" stop-color="#4d4d4d"/></linearGradient><filter id="b" width="1.096" height="1.096" x="-.048" y="-.048" color-interpolation-filters="sRGB"><feGaussianBlur stdDeviation="4.48"/></filter><filter id="a" width="1.024" height="1.024" x="-.012" y="-.012" color-interpolation-filters="sRGB"><feGaussianBlur stdDeviation="1.12"/></filter></defs><g color="#000"><path d="M243.08-235.5c35.297 0 39.095 3.625 38.922 38.994v146.012c.173 35.368-3.625 38.994-38.922 38.994H96.92c-35.297 0-38.922-3.625-38.922-38.994v-146.012c0-35.369 3.625-38.994 38.922-38.994z" enable-background="accumulate" filter="url(#a)" opacity=".1" transform="matrix(.26066 0 0 .26101 -12.315 64.2)"/><path d="M243.08-235.5c35.297 0 39.095 3.625 38.922 38.994v146.012c.173 35.368-3.625 38.994-38.922 38.994H96.92c-35.297 0-38.922-3.625-38.922-38.994v-146.012c0-35.369 3.625-38.994 38.922-38.994z" enable-background="accumulate" filter="url(#b)" opacity=".2" transform="matrix(.26066 0 0 .26101 -12.315 64.2)"/><path fill="url(#c)" d="M12.948 238.47c-9.2 0-10.145.946-10.145 10.178v38.11c0 9.231.945 10.178 10.145 10.178h19.05v-58.465zm42.454.148c5.087.491 5.768 2.484 5.787 9.703.015-7.22-.688-9.212-5.787-9.703m5.787 48.466c-.02 7.22-.7 9.212-5.787 9.703 5.1-.49 5.802-2.482 5.787-9.703" enable-background="accumulate" transform="translate(0 -236)"/></g><path fill="url(#d)" d="M31.998 238.47v58.465h19.048c9.2 0 10.145-.946 10.145-10.178v-38.11c0-9.231-.945-10.178-10.145-10.178z" enable-background="new" transform="translate(0 -236)"/><path fill="url(#e)" fill-rule="evenodd" d="M31.998 238.99h3.063v57.943h-3.063z" enable-background="new" transform="translate(0 -236)"/><path fill="#fff" d="M2.804 31.7v19.055c-.045 9.231.945 10.178 10.145 10.178h19.048V31.7z" enable-background="new" opacity=".1"/><path fill="#f2f2f2" d="M23.432 257.17c-.252.284-.41.473-.693.851-.725.945-1.103 1.26-1.482 1.26-.44 0-.725-.41-.945-1.292-.095-.346-.095-.41-.126-.504-.788-3.215-1.135-4.664-1.135-5.137 1.418-2.458 2.522-3.814 3.089-3.814.189 0 .473.095.756.252.378.221.6.284.883.284.63 0 1.071-.473 1.071-1.135 0-.693-.535-1.166-1.292-1.166-1.387 0-2.553 1.135-4.759 4.507l-.347-1.733c-.44-2.143-.788-2.774-1.639-2.774-.724 0-1.733.253-3.687.914-.19.063-.19.063-.347.127l.126.472c1.23-.315 1.45-.346 1.765-.346.788 0 .977.283 1.419 2.174l.914 3.877-2.585 3.687c-.662.946-1.26 1.513-1.607 1.513-.19 0-.504-.094-.82-.283-.41-.221-.725-.316-1.008-.316-.63 0-1.072.473-1.072 1.103 0 .82.6 1.324 1.576 1.324s1.355-.283 2.931-2.175c.851-1.04 1.545-1.985 2.837-3.719l.945 3.783c.41 1.638.82 2.111 1.828 2.111 1.198 0 2.017-.756 3.845-3.593z" aria-label="x" style="font-feature-settings:normal;font-variant-caps:normal;font-variant-ligatures:normal;font-variant-numeric:normal" transform="matrix(.99933 0 0 1.0007 0 -236)"/><path fill="#f2f2f2" d="M9.608 285.59h.413q.044.791.468 1.103.423.312 1.348.312h3.042l-.022-.746q-1.772-.357-3.232-1.973t-1.46-4.079q0-2.73 2.029-4.658 2.04-1.928 5.315-1.928 3.176 0 5.194 1.828 2.017 1.816 2.017 4.658 0 2.307-1.26 3.923-1.248 1.604-3.387 2.229l-.112.746h3.098q1.059 0 1.393-.401.346-.401.368-1.014h.412v3.488h-6.24l.29-3.366q2.874-.902 2.874-5.315 0-2.886-1.415-4.424-1.404-1.538-3.298-1.538-2.018 0-3.344 1.638-1.315 1.627-1.315 4.168 0 1.839.591 3.354.59 1.504 2.262 2.117l.212 3.366h-6.24z" aria-label="Ω" style="font-feature-settings:normal;font-variant-caps:normal;font-variant-ligatures:normal;font-variant-numeric:normal" transform="matrix(.99933 0 0 1.0007 0 -236)"/><g color="#000"><path fill="#fff" d="M12.949 2.47c-9.2 0-10.19.946-10.145 10.178v.522c-.045-9.231.945-10.178 10.145-10.178h38.097c9.2 0 10.145.946 10.145 10.178v-.522c0-9.231-.945-10.178-10.145-10.178z" enable-background="accumulate" opacity=".3"/><path d="M12.951 60.93c-9.2 0-10.19-.946-10.145-10.178v-.522c-.045 9.231.945 10.178 10.145 10.178h38.097c9.2 0 10.145-.946 10.145-10.178v.522c0 9.231-.945 10.178-10.145 10.178z" enable-background="accumulate" opacity=".2"/><path fill="#fff" d="M39.342 26.17v2.767h14.462V26.17zm0 8.3v2.767h14.462V34.47z" enable-background="accumulate"/></g></svg>